<svg xmlns="http://www.w3.org/2000/svg" xmlns:xlink="http://www.w3.org/1999/xlink" id="Layer_1" x="0px" y="0px" viewBox="0 0 550.1 309.9" style="enable-background:new 0 0 550.1 309.9;" xml:space="preserve"><style type="text/css">	.st0{clip-path:url(#SVGID_00000141415192512751941010000005944298220948136105_);}	.st1{fill:#E0D0AA;}	.st2{fill:#AF7C3D;}	.st3{fill:#CE9550;}	.st4{fill:#91805E;}	.st5{fill:#564E40;}	.st6{clip-path:url(#SVGID_00000134966933626709744300000016206831761861413525_);}</style><g>	<g>		<defs>			<rect id="SVGID_1_" y="-24.2" width="550.1" height="367.8"></rect>		</defs>		<clipPath id="SVGID_00000128486696537926540470000002014567218635581106_">			<use xlink:href="#SVGID_1_" style="overflow:visible;"></use>		</clipPath>		<g style="clip-path:url(#SVGID_00000128486696537926540470000002014567218635581106_);">			<g>				<polygon class="st1" points="343.1,112.6 320.4,139.8 318.6,142 299.6,164.7 282.5,150.5 280.2,148.6 245.9,120 264.8,97.2      266.7,95 289.3,67.8 323.7,96.4 326,98.3     "></polygon>				<polygon class="st2" points="292.4,58.8 286.5,65.9 263.8,93.1 244.6,77 267.2,49.9 273.1,42.8     "></polygon>				<polygon class="st3" points="274.8,148.9 252.4,175.8 218.1,147.2 198.8,131.2 221.2,104.3 223.2,102 242.1,79.3 261.3,95.3      242.4,118 240.5,120.3     "></polygon>				<polygon class="st4" points="297.2,167.6 274.8,194.5 269.2,201.2 266.2,198.7 249.1,184.5 254.7,177.7 277.1,150.8      294.2,165.1     "></polygon>			</g>			<path class="st5" d="M210.7,150.7l-56.1,0.6c-0.5,0-0.9-0.4-0.9-0.9c0-0.2,0.1-0.5,0.2-0.6l0,0l56.4-66.1l56.6-65.9    c1-1.2,2.8-1.3,4-0.3l0,0h0.1l72.6,64.6c12.1,10.8,24,21.8,35.8,32.8l35.3,33.4l0.1,0.1c1.1,1,1.1,2.8,0.1,3.9    c-0.5,0.6-1.3,0.9-2,0.9l-45.6-1c-15.2-0.5-30.4-0.8-45.6-1.4c-0.2,0-0.4-0.2-0.4-0.4s0.2-0.4,0.4-0.4c15.2-0.6,30.4-1,45.6-1.4    l45.6-1l-1.9,4.8l-36.6-32c-12.1-10.7-24.2-21.5-36.1-32.5l-71.2-66.1l4-0.2l-57.8,64.8l-58,64.7l-0.7-1.6l56.1,0.6    c0.2,0,0.4,0.2,0.4,0.4C211.1,150.5,210.9,150.7,210.7,150.7z"></path>		</g>	</g>	<g>		<defs>			<rect id="SVGID_00000151505267930891536330000004528378158566917262_" y="-24.2" width="550.1" height="367.8"></rect>		</defs>		<clipPath id="SVGID_00000078739291308035593570000013495910370308988337_">			<use xlink:href="#SVGID_00000151505267930891536330000004528378158566917262_" style="overflow:visible;"></use>		</clipPath>		<g style="clip-path:url(#SVGID_00000078739291308035593570000013495910370308988337_);">			<g>				<path class="st5" d="M134.5,210.4v14.4h-1.1c-0.4-2.8-1-5-2-6.6s-2.3-2.9-4.1-3.9c-1.8-1-3.6-1.4-5.5-1.4c-2.1,0-3.9,0.7-5.3,2     s-2.1,2.8-2.1,4.4c0,1.3,0.4,2.4,1.3,3.5c1.3,1.5,4.3,3.6,9.1,6.2c3.9,2.1,6.6,3.7,8,4.8s2.5,2.4,3.3,4s1.2,3.1,1.2,4.8     c0,3.2-1.2,5.9-3.7,8.2c-2.5,2.3-5.6,3.4-9.5,3.4c-1.2,0-2.3-0.1-3.4-0.3c-0.6-0.1-2-0.5-4-1.1s-3.3-1-3.8-1s-0.9,0.2-1.2,0.5     c-0.3,0.3-0.5,0.9-0.7,1.9h-1v-14.3h1.1c0.5,3,1.3,5.2,2.2,6.7c0.9,1.5,2.3,2.7,4.1,3.7c1.9,1,3.9,1.5,6.1,1.5     c2.6,0,4.6-0.7,6.1-2c1.5-1.4,2.2-3,2.2-4.8c0-1-0.3-2.1-0.8-3.1c-0.6-1-1.4-2-2.6-2.9c-0.8-0.6-3-1.9-6.6-3.9s-6.1-3.6-7.6-4.8     s-2.7-2.5-3.4-3.9c-0.8-1.4-1.2-3-1.2-4.7c0-3,1.1-5.6,3.4-7.7c2.3-2.2,5.2-3.2,8.8-3.2c2.2,0,4.6,0.5,7,1.6     c1.1,0.5,2,0.8,2.4,0.8c0.5,0,1-0.2,1.3-0.5s0.6-1,0.8-1.9h1.2V210.4z"></path>				<path class="st5" d="M177.1,211.3l0.5,9.8h-1.2c-0.2-1.7-0.5-3-0.9-3.7c-0.6-1.2-1.5-2.1-2.5-2.6c-1.1-0.6-2.4-0.8-4.2-0.8h-5.9     v31.8c0,2.6,0.3,4.2,0.8,4.8c0.8,0.9,2,1.3,3.6,1.3h1.4v1.1H151v-1.1h1.5c1.8,0,3-0.5,3.8-1.6c0.5-0.7,0.7-2.2,0.7-4.5v-31.9h-5     c-1.9,0-3.3,0.1-4.2,0.4c-1.1,0.4-2,1.1-2.7,2.2c-0.8,1.1-1.2,2.6-1.4,4.5h-1.2l0.5-9.8h34.1V211.3z"></path>				<path class="st5" d="M201.1,210.4c5.4,0,10.1,2.1,14.1,6.2c4,4.1,6,9.2,6,15.4c0,6.3-2,11.6-6,15.8c-4,4.2-8.8,6.3-14.5,6.3     s-10.6-2-14.5-6.1s-5.9-9.4-5.9-15.8c0-6.6,2.3-12,6.8-16.2C190.9,212.2,195.6,210.4,201.1,210.4z M200.5,212.6     c-3.7,0-6.7,1.4-9,4.2c-2.8,3.4-4.2,8.5-4.2,15.1c0,6.8,1.5,12.1,4.4,15.7c2.2,2.8,5.2,4.2,8.9,4.2c3.9,0,7.2-1.5,9.7-4.6     c2.6-3.1,3.8-7.9,3.8-14.5c0-7.1-1.4-12.5-4.2-16C207.6,214,204.5,212.6,200.5,212.6z"></path>				<path class="st5" d="M222.7,211.3H234l25.5,31.3v-24.1c0-2.6-0.3-4.2-0.9-4.8c-0.8-0.9-2-1.3-3.6-1.3h-1.4v-1.1h14.5v1.1h-1.5     c-1.8,0-3,0.5-3.8,1.6c-0.5,0.7-0.7,2.2-0.7,4.5v35.2H261l-27.5-33.6v25.7c0,2.6,0.3,4.2,0.8,4.8c0.8,0.9,2,1.3,3.6,1.3h1.5v1.1     H225v-1.1h1.4c1.8,0,3-0.5,3.8-1.6c0.5-0.7,0.7-2.2,0.7-4.5v-29c-1.2-1.4-2.1-2.3-2.8-2.8s-1.5-0.9-2.8-1.3     c-0.6-0.2-1.5-0.3-2.7-0.3v-1.1H222.7z"></path>				<path class="st5" d="M282.2,213.6v16.5h9.2c2.4,0,4-0.4,4.8-1.1c1.1-0.9,1.7-2.6,1.8-5h1.1v14.5H298c-0.3-2-0.6-3.3-0.9-3.9     c-0.4-0.7-1-1.3-1.8-1.7c-0.8-0.4-2.1-0.6-3.9-0.6h-9.2v13.8c0,1.8,0.1,3,0.2,3.4c0.2,0.4,0.5,0.7,0.9,1     c0.4,0.2,1.2,0.4,2.3,0.4h7.1c2.4,0,4.1-0.2,5.1-0.5c1.1-0.3,2.1-1,3.1-1.9c1.3-1.3,2.6-3.2,3.9-5.8h1.2l-3.6,10.5h-32.2v-1.1     h1.5c1,0,1.9-0.2,2.8-0.7c0.7-0.3,1.1-0.8,1.3-1.5c0.2-0.7,0.4-2,0.4-4v-27.1c0-2.6-0.3-4.3-0.8-4.9c-0.7-0.8-2-1.2-3.7-1.2     h-1.5v-1.1h32.2l0.5,9.1h-1.2c-0.4-2.2-0.9-3.7-1.4-4.5s-1.3-1.4-2.3-1.9c-0.8-0.3-2.3-0.5-4.3-0.5h-11.5V213.6z"></path>				<path class="st3" d="M345.5,210.4l1,14.2h-1c-1.3-4.2-3.1-7.3-5.4-9.2c-2.4-1.9-5.2-2.8-8.5-2.8c-2.8,0-5.3,0.7-7.5,2.1     c-2.2,1.4-4,3.6-5.3,6.7s-1.9,6.9-1.9,11.5c0,3.8,0.6,7,1.8,9.8c1.2,2.8,3,4.9,5.5,6.4c2.4,1.5,5.2,2.2,8.3,2.2     c2.7,0,5.1-0.6,7.2-1.7c2.1-1.2,4.3-3.5,6.8-6.9l1,0.6c-2.1,3.7-4.5,6.4-7.3,8.2c-2.8,1.7-6.1,2.6-9.9,2.6     c-6.9,0-12.3-2.6-16.1-7.7c-2.8-3.8-4.2-8.3-4.2-13.5c0-4.2,0.9-8,2.8-11.5s4.4-6.2,7.7-8.1c3.3-1.9,6.8-2.9,10.7-2.9     c3,0,6,0.7,8.9,2.2c0.9,0.5,1.5,0.7,1.8,0.7c0.6,0,1-0.2,1.4-0.6c0.5-0.6,0.9-1.3,1.1-2.3L345.5,210.4L345.5,210.4z"></path>				<path class="st3" d="M362.7,213.6v16.5h9.2c2.4,0,4-0.4,4.8-1.1c1.1-0.9,1.7-2.6,1.8-5h1.1v14.5h-1.1c-0.3-2-0.6-3.3-0.9-3.9     c-0.4-0.7-1-1.3-1.8-1.7s-2.1-0.6-3.9-0.6h-9.2v13.8c0,1.8,0.1,3,0.2,3.4c0.2,0.4,0.5,0.7,0.9,1c0.4,0.2,1.2,0.4,2.3,0.4h7.1     c2.4,0,4.1-0.2,5.1-0.5s2.1-1,3.1-1.9c1.3-1.3,2.6-3.2,3.9-5.8h1.2l-3.6,10.5h-32.2v-1.1h1.5c1,0,1.9-0.2,2.8-0.7     c0.7-0.3,1.1-0.8,1.3-1.5c0.2-0.7,0.4-2,0.4-4v-27.1c0-2.6-0.3-4.3-0.8-4.9c-0.7-0.8-2-1.2-3.7-1.2h-1.5v-1.1H383l0.5,9.1h-1.2     c-0.4-2.2-0.9-3.7-1.4-4.5s-1.3-1.4-2.3-1.9c-0.8-0.3-2.3-0.5-4.3-0.5h-11.6V213.6z"></path>				<path class="st3" d="M430.6,253.1h-11.1l-14.1-19.5c-1,0-1.9,0.1-2.6,0.1c-0.3,0-0.6,0-0.9,0s-0.6,0-1,0v12.1     c0,2.6,0.3,4.3,0.9,4.9c0.8,0.9,1.9,1.4,3.5,1.4h1.6v1.1H389v-1.1h1.6c1.8,0,3-0.6,3.8-1.7c0.4-0.6,0.6-2.1,0.6-4.5v-27     c0-2.6-0.3-4.3-0.9-4.9c-0.8-0.9-2-1.4-3.6-1.4h-1.6v-1.1h15.2c4.4,0,7.7,0.3,9.8,1c2.1,0.6,3.9,1.8,5.4,3.6     c1.5,1.7,2.2,3.8,2.2,6.2c0,2.6-0.8,4.8-2.5,6.7s-4.3,3.2-7.8,4l8.6,12c2,2.7,3.7,4.6,5.1,5.5s3.3,1.5,5.5,1.7v0.9H430.6z      M401,231.6c0.4,0,0.7,0,1,0s0.5,0,0.7,0c4,0,7-0.9,9-2.6s3-3.9,3-6.6c0-2.6-0.8-4.7-2.4-6.4s-3.8-2.4-6.5-2.4     c-1.2,0-2.8,0.2-4.8,0.6L401,231.6L401,231.6z"></path>				<path class="st3" d="M458.9,239.1h-16.2l-2.8,6.6c-0.7,1.6-1,2.8-1,3.6c0,0.6,0.3,1.2,0.9,1.7s1.9,0.8,3.9,0.9v1.1h-13.1v-1.1     c1.7-0.3,2.9-0.7,3.4-1.2c1-1,2.2-3,3.5-6l14.7-34.3h1.1l14.5,34.7c1.2,2.8,2.2,4.6,3.2,5.4s2.3,1.3,4,1.4v1.1h-16.5v-1.1     c1.7-0.1,2.8-0.4,3.4-0.8c0.6-0.5,0.9-1,0.9-1.7c0-0.9-0.4-2.3-1.2-4.3L458.9,239.1z M458,236.8l-7.1-16.9l-7.3,16.9H458z"></path>			</g>		</g>	</g>	<g>		<g>			<g>				<path class="st5" d="M118.6,284.8c0,2.6-2.1,5-5.2,5h-6.1v-16.4h4.5c2.7,0,4.7,1.9,4.7,4.1c0,1.8-1.3,3.1-2.1,3.1     C116.5,280.5,118.6,282.3,118.6,284.8z M109.2,275.2v5h2.7c1.8,0,2.9-1.1,2.9-2.5s-1.3-2.5-2.9-2.5H109.2z M116.8,284.6     c0-1.5-1.5-2.9-3.6-2.9h-4v6.2h4.1C115.1,288,116.8,286.5,116.8,284.6z"></path>				<path class="st5" d="M133.3,289.8l-4.6-6.4h-3.1v6.4h-1.8v-16.4h4.8c3,0,5.5,2.3,5.5,5.2c0,2.1-1.5,4-3.4,4.6l4.9,6.6     L133.3,289.8L133.3,289.8z M128.7,281.8c2,0,3.6-1.5,3.6-3.3c0-1.9-1.6-3.4-3.6-3.4h-3v6.6L128.7,281.8z"></path>				<path class="st5" d="M140.4,273.4h1.8v16.4h-1.8V273.4z"></path>				<path class="st5" d="M161.8,273.3V290h-0.1l-11.2-12.5v12.3h-1.8v-16.7h0.1l11.2,12.5v-12.2L161.8,273.3L161.8,273.3z"></path>				<path class="st5" d="M183.5,282.3c0,4.6-3.5,7.7-7.8,7.7c-4.7,0-8.5-3.8-8.5-8.4s3.8-8.4,8.4-8.4c2,0,4.5,1,5.9,2.5l-1,1.5     c-1.3-1.3-3.3-2.1-4.9-2.1c-3.5,0-6.5,2.9-6.5,6.6c0,3.6,2.9,6.5,6.7,6.5c3.2,0,5.7-2.1,5.7-5c0-0.1,0-0.2,0-0.3h-5.9v-1.7h7.8     C183.5,281.3,183.5,281.8,183.5,282.3z"></path>				<path class="st5" d="M189,273.4h1.8v16.4H189V273.4z"></path>				<path class="st5" d="M210.4,273.3V290h-0.1l-11.2-12.5v12.3h-1.8v-16.7h0.1l11.2,12.5v-12.2L210.4,273.3L210.4,273.3z"></path>				<path class="st5" d="M232.2,282.3c0,4.6-3.5,7.7-7.8,7.7c-4.7,0-8.5-3.8-8.5-8.4s3.8-8.4,8.4-8.4c2,0,4.5,1,5.9,2.5l-1,1.5     c-1.3-1.3-3.3-2.1-4.9-2.1c-3.5,0-6.5,2.9-6.5,6.6c0,3.6,2.9,6.5,6.7,6.5c3.2,0,5.7-2.1,5.7-5c0-0.1,0-0.2,0-0.3h-5.9v-1.7h7.8     C232.1,281.3,232.2,281.8,232.2,282.3z"></path>				<path class="st5" d="M259.9,273.3V290h-0.1l-11.2-12.5v12.3h-1.8v-16.7h0.1l11.2,12.5v-12.2L259.9,273.3L259.9,273.3z"></path>				<path class="st5" d="M276.9,287.1H268l-1.2,2.7h-2l7.6-16.6h0.2l7.6,16.6h-2L276.9,287.1z M276.2,285.5l-3.8-8.4l-3.8,8.4H276.2     z"></path>				<path class="st5" d="M293.2,275.2h-4.7v14.6h-1.8v-14.6h-4.8v-1.8h11.4v1.8H293.2z"></path>				<path class="st5" d="M298.2,283.4v-10h1.9v10c0,2.8,1.8,4.8,4.2,4.8c2.4,0,4.2-2,4.2-4.8v-10h1.9v10c0,3.8-2.6,6.6-6.1,6.6     C300.8,290,298.2,287.2,298.2,283.4z"></path>				<path class="st5" d="M326,289.8l-4.6-6.4h-3.1v6.4h-1.8v-16.4h4.8c3,0,5.5,2.3,5.5,5.2c0,2.1-1.5,4-3.4,4.6l4.9,6.6L326,289.8     L326,289.8z M321.4,281.8c2,0,3.6-1.5,3.6-3.3c0-1.9-1.6-3.4-3.6-3.4h-3v6.6L321.4,281.8z"></path>				<path class="st5" d="M334.9,275.2v5.2h6.7v1.8h-6.7v5.7h7.8v1.8h-9.6v-16.4h9.6v1.8h-7.8V275.2z"></path>				<path class="st5" d="M347.7,273h1.8l-0.4,5.3H348L347.7,273z"></path>				<path class="st5" d="M354,286.8l1.4-1c0.7,1.4,2.4,2.3,4.2,2.3c2.1,0,3.9-1.2,3.9-2.8c0-1.8-2.3-2.7-4.4-3.5     c-2-0.8-4.3-1.8-4.3-4.3s2.3-4.4,5.1-4.4c2.4,0,4.1,1.3,4.7,2.9l-1.4,0.9c-0.5-1.2-1.8-2.1-3.3-2.1c-1.8,0-3.3,1.2-3.3,2.6     c0,1.6,1.8,2.2,3.9,3c2.5,1,4.8,2.1,4.8,4.8c0,2.8-2.6,4.7-5.8,4.7C356.9,290,354.8,288.6,354,286.8z"></path>				<path class="st5" d="M391,284.8c0,2.6-2.1,5-5.2,5h-6.1v-16.4h4.5c2.7,0,4.7,1.9,4.7,4.1c0,1.8-1.3,3.1-2.1,3.1     C388.9,280.5,391,282.3,391,284.8z M381.6,275.2v5h2.7c1.8,0,2.9-1.1,2.9-2.5s-1.3-2.5-2.9-2.5H381.6z M389.2,284.6     c0-1.5-1.5-2.9-3.6-2.9h-4v6.2h4.1C387.5,288,389.2,286.5,389.2,284.6z"></path>				<path class="st5" d="M398,275.2v5.2h6.7v1.8H398v5.7h7.8v1.8h-9.6v-16.4h9.6v1.8H398V275.2z"></path>				<path class="st5" d="M422.3,287.1h-8.9l-1.2,2.7h-2l7.6-16.6h0.2l7.6,16.6h-2L422.3,287.1z M421.6,285.5l-3.8-8.4l-3.8,8.4     H421.6z"></path>				<path class="st5" d="M428.7,283.4v-10h1.9v10c0,2.8,1.8,4.8,4.2,4.8c2.4,0,4.2-2,4.2-4.8v-10h1.9v10c0,3.8-2.6,6.6-6.1,6.6     C431.3,290,428.7,287.2,428.7,283.4z"></path>				<path class="st5" d="M457.2,275.2h-4.7v14.6h-1.8v-14.6h-4.8v-1.8h11.4v1.8H457.2z"></path>				<path class="st5" d="M466.7,282.8l-5.8-9.4h2.1l4.6,7.4l4.6-7.4h2.1l-5.8,9.4v7h-1.8L466.7,282.8L466.7,282.8z"></path>			</g>		</g>	</g></g></svg>